<svg xmlns="http://www.w3.org/2000/svg" viewBox="0 0 945.2174 232.4301">
  <g id="white-rgb">
    <g>
      <path id="fullLogo" d="M267.4216,2.5964H377.7939V35.0593H340.4616V229.8337H304.7539V35.0593H267.4216Z" style="fill: #fff"/>
      <path id="fullLogo-2" data-name="fullLogo" d="M499.85,229.8337H463.816l-6.1676-41.2269H413.825l-6.1677,41.2269H374.87L411.227,2.5964h52.2641ZM418.368,157.767h34.4109L435.5742,42.85Z" style="fill: #fff"/>
      <path id="fullLogo-3" data-name="fullLogo" d="M519.65,2.5964H555.359V197.3708h58.7551v32.4629H519.65Z" style="fill: #fff"/>
      <path id="fullLogo-4" data-name="fullLogo" d="M632.9389,2.5964h35.7092V229.8337H632.9389Z" style="fill: #fff"/>
      <path id="fullLogo-5" data-name="fullLogo" d="M733.5678,229.8337H697.8586V2.5964h35.7092V99.9852h40.5771V2.5964H810.504V229.8337H774.1449V132.4465H733.5678Z" style="fill: #fff"/>
      <path id="fullLogo-6" data-name="fullLogo" d="M836.7931,57.1335C836.7931,20.776,855.9459,0,891.0053,0s54.2121,20.776,54.2121,57.1335V175.2967c0,36.359-19.1528,57.1334-54.2121,57.1334s-54.2122-20.7744-54.2122-57.1334Zm35.7061,120.4346c0,16.2315,7.1425,22.3991,18.5061,22.3991,11.36,0,18.5029-6.1676,18.5029-22.3991V54.862c0-16.2314-7.1425-22.3991-18.5029-22.3991-11.3636,0-18.5061,6.1677-18.5061,22.3991Z" style="fill: #fff"/>
      <path id="fullLogo-7" data-name="fullLogo" d="M136.002,83.7174H90.5238a8.5876,8.5876,0,0,0-8.5874,8.5876v45.4781a8.5876,8.5876,0,0,0,8.5878,8.5876h20.1533a6.3168,6.3168,0,0,0,4.18-1.6018c5.4863-4.8484,11.2843-9.3141,16.4921-14.5152a127.4655,127.4655,0,0,0,12.1694-14.1709,5.4735,5.4735,0,0,0,1.07-3.2664V92.305A8.5878,8.5878,0,0,0,136.002,83.7174Z" style="fill: #fff"/>
      <path id="fullLogo-8" data-name="fullLogo" d="M204.0537,1.3652,25.9893,1.272A26.0192,26.0192,0,0,0,0,27.2613V205.41a24.43,24.43,0,0,0,24.4033,24.402s118.5675.0215,120.8272.0215c11.3768,0,37.47-2.6074,48.1489-26.827,9.0166-20.4481,24.7244-71.3819,33.0754-177.3728A22.4952,22.4952,0,0,0,204.0537,1.3652ZM175.682,195.1867a31.4564,31.4564,0,0,1-8.5813,10.1831c-1.5663,1.1973-3.2664,2.182-3.9771-2.0925-1.7266-10.3832-10.0907-15.1926-18.52-19.2634-3.4407-1.6613-7.0482-4.3082-7.7878-8.5309-1.3614-7.78,8.2945-13.401,13.5837-17.1249,7.9467-5.5948,14.8968-12.77,21.16-20.1644a177.8446,177.8446,0,0,0,15.9632-22.2688q3.5914-5.8768,6.8087-11.971,1.6551-3.1215,3.2235-6.2872c.5306-1.07,1.1933-2.4092,1.838-3.7526l.0234-.0487a.5284.5284,0,0,1,.2377-.2377c.0234-.0046.0467-.0085.07-.0108a.3746.3746,0,0,1,.15-.0122.621.621,0,0,1,.0658.0222c.2141.0759.2168.2906.1888.47-1.5925,11.3588-3.4038,22.6887-5.525,33.9613-1.6868,8.9642-3.5682,17.8941-5.7339,26.7554-1.6669,6.8206-3.5006,13.6031-5.5875,20.3078-1.5333,4.9265-3.2015,9.8143-5.0856,14.6184A47.6794,47.6794,0,0,1,175.682,195.1867ZM201.4306,33.54q-3.3764,11.83-7.5145,23.4183C187.1853,75.74,178.93,94.1422,168.1,110.94a134.5693,134.5693,0,0,1-17.8791,22.3778c-7.5623,7.5524-16.3761,13.5448-23.6613,21.4246-7.5463,8.162-11.8954,20.0893-6.4486,30.5332a32.1306,32.1306,0,0,0,9.7853,10.8476c4.3741,3.1914,7.4013,5.0951,10.6625,7.9738a3.8185,3.8185,0,0,1,.0373,5.4747c-1.2809,1.4711-3.37,1.1265-5.1665,1.1265H31.8511a12.7359,12.7359,0,0,1-12.7359-12.7358V33.1226A12.7362,12.7362,0,0,1,31.8514,20.3863H191.5621A10.2929,10.2929,0,0,1,201.4306,33.54Z" style="fill: #fff"/>
    </g>
  </g>
</svg>
